<?xml version="1.0" encoding="utf-8"?>
<!-- Generator: Adobe Illustrator 28.0.0, SVG Export Plug-In . SVG Version: 6.00 Build 0)  -->
<svg version="1.1" id="Layer_1" xmlns="http://www.w3.org/2000/svg" xmlns:xlink="http://www.w3.org/1999/xlink" x="0px" y="0px"
	 viewBox="0 0 1190.55 841.89" style="enable-background:new 0 0 1190.55 841.89;" xml:space="preserve">
<style type="text/css">
	.st0{fill:#A801A4;}
	.st1{fill:#5A0056;}
	.st2{fill:#FEFEFE;}
</style>
<path class="st0" d="M-107.45,493.8c-2.19-1.61-4.39-3.21-6.58-4.82c0.11-0.24,0.23-0.49,0.34-0.73c12.89,1.95,25.8,3.83,38.68,5.86
	c15.96,2.52,31.88,5.23,47.85,7.73c22.68,3.55,45.4,6.89,68.07,10.5c7.45,1.19,14.93,1.11,22.4,1.24
	c35.44,0.62,70.88,1.08,106.32,1.59c1.33,0.02,2.65-0.12,3.98-0.19c2.7-0.72,7.06,2.36,7.67-0.08c0.73-2.92-3.98-4.03-6.49-5.64
	c-23.17-14.87-46.31-29.8-69.64-44.41c-6.68-4.18-12.73-9.56-20.49-11.91c-9.01-6.1-18.07-12.1-26.99-18.33
	c-3.18-2.23-4.79-5.92-7.05-9c-19.35-26.41-38.78-52.76-57.95-79.3c-17.26-23.88-34.2-47.99-51.34-71.96
	c-4.2-5.87-8.62-11.57-12.49-18.16c5.72,2.47,11.47,4.88,17.17,7.41c37.64,16.76,75.27,33.54,112.9,50.32
	c9.48,4.23,18.93,8.53,28.45,12.68c1.92,0.84,3.94,1.8,6.2,1.37c1.01-0.08,1.41,0.64,1.87,1.35c10.7,16.85,21.32,33.74,32.16,50.51
	c3.87,5.98,6.49,13.04,12.06,17.62c35.14,28.9,70.65,57.36,105.61,86.48c6.82,5.68,13.64,5.21,21.24,4.86
	c-0.26-1.96-1.64-2.37-2.68-3.11c-27.74-19.83-55.51-39.61-83.17-59.54c-5.77-4.16-12.41-7.33-16.87-13.07
	c-20.08-25.86-39.99-51.87-60.08-77.73c-7.43-9.57-14.37-19.53-22.59-28.48c0,0,0.04,0.06,0.03,0.06c-0.17-0.31-0.33-0.62-0.5-0.93
	c-2.02-0.66-2.57-2.36-3.11-4.82c5.12,1.83,9.1,4.93,13.32,7.46c23.4,14.02,46.7,28.21,70.06,42.31c8.6,5.19,18.53,6.76,27.9,9.75
	c20.41,6.5,41.05,12.32,61.56,18.49c1.29,0.39,2.41,1.09,4.21,0.08c-3.35-5.6-6.66-11.19-10.04-16.75
	c-8.91-14.67-17.85-29.33-26.79-43.99c-8.76-14.37-17.29-28.89-26.42-43.02c-3.67-5.67-4.29-12.04-5.93-18.12
	c-4.6-17.1-8.57-34.38-12.68-51.62c-3.7-15.54-8.34-30.88-11.97-46.37c-2.91-12.42-5.69-24.97-8.48-37.47
	c-2.34-10.45-5.07-20.82-7.75-31.19c-0.35-1.35-0.14-2.45,0.27-4.1c10.61,9.15,21.01,18.11,31.4,27.08
	c18.97,16.37,37.95,32.72,56.89,49.12c16.06,13.91,32.05,27.89,48.11,41.81c18.93,16.41,37.89,32.77,56.83,49.17
	c5.27,4.56,10.49,9.17,15.77,13.72c0.81,0.7,1.7,2.1,2.91,1.08c0.95-0.8,0.12-1.98-0.1-3.11c-2.29-11.66-4.33-23.37-6.5-35.06
	c-1.58-8.51-3.76-16.94-4.7-25.52c-0.75-6.81-2.68-13.43-2.42-20.42c1.5-40.29,2.78-80.58,4.14-120.87
	c0.02-0.46,0.17-0.91,0.53-2.65c24.91,31.41,49.24,62.1,74.15,93.51c3.55-22.41,6.68-44,10.48-65.46
	c2.26-12.79,4.7-25.59,6.74-38.38c2.43-15.23,5.04-30.46,7.09-45.76c0.12-0.89-0.31-2.11,1.01-2.5c1.63-0.48,1.94,0.98,2.45,1.9
	C461.05,24.93,472.5,45.6,484,66.23c16.25,29.14,32.55,58.25,49.25,88.14c4.42-14.13,9.89-27.05,15.05-40.09
	c8.48-21.45,16.93-42.9,25.38-64.36c2.36-6,4.62-12.05,7.15-17.98c0.38-0.9-0.24-3.1,2.02-2.69c1.45,0.26,1.46,1.73,1.85,2.69
	c6.3,15.43,12.52,30.89,18.73,46.36c8.67,21.58,17.54,43.08,25.86,64.79c3.17,8.28,5.08,17.05,7.48,25.62
	c0.44,1.56,0.3,3.86,2.1,3.99c1.79,0.13,1.8-2.37,2.68-3.65c4.98-7.27,7.47-16.01,13.87-23.73c2.9,10.76,5.6,20.73,8.34,30.89
	c35.59-57.98,72.59-114.32,109.71-170.96c1.14,8.09,2.27,16.18,3.42,24.27c2.24,15.86,4.5,31.72,6.73,47.59
	c0.78,5.58,1.47,11.16,2.26,16.74c0.15,1.06-0.59,2.6,0.88,3.05c1.41,0.43,1.77-1.1,2.44-1.98c6.65-8.67,13.28-17.35,19.99-25.97
	c1.7-2.19,3.18-4.64,5.79-6.03c1.61,1.08,0.91,2.73,0.97,4.09c1.58,39.11,3.2,78.23,4.59,117.35c0.4,11.17-3.2,21.87-5.09,32.76
	c-4.25,24.38-9,48.67-13.57,73c-0.88,4.7-1.87,9.38-2.8,14.07c-0.23,1.15-0.49,2.4,0.78,3.13c1.21,0.7,1.63-0.69,2.4-1.12
	c7.62-4.26,10.7-12.33,15.51-18.88c5.83-7.93,10.96-16.37,16.42-24.57c0.43-0.64,1.12-1.1,2.67-2.56c-0.54,7.78-1,14.46-1.55,22.43
	c77.44-62.24,153.86-123.65,230.29-185.07c0.37,0.34,0.75,0.68,1.12,1.02c-5.54,19.57-11.14,39.13-16.62,58.72
	c-11.44,40.88-22.83,81.77-34.17,122.67c-1,3.59-2.54,6.75-4.73,9.78c-17.02,23.46-33.94,46.99-50.87,70.51
	c-0.95,1.32-2.3,2.44-2.51,4.94c6.77-2.29,13.59-3.39,19.56-7.22c25.23-16.19,50.5-32.31,75.77-48.43c1.52-0.97,3.17-1.74,4.76-2.61
	l-0.06-0.11c1.23,2.14-0.78,3.32-1.58,4.7c-10.93,18.77-21.98,37.48-32.94,56.23c-0.89,1.53-2.25,2.89-2.36,5.48
	c6.36-1.99,12.47-3.94,18.6-5.8c13.5-4.08,26.74-9.04,40.44-12.46c-3.84,8.46-10.1,15.61-14.3,25.21c2.71-1.29,4.36-1.98,5.93-2.83
	c15.19-8.22,30.34-16.51,45.55-24.69c36.72-19.75,73.52-39.33,110.12-59.29c5.58-3.04,12-4.85,16.48-9.8c0,0-0.11,0.22-0.11,0.22
	c0.93,0,1.75-0.22,2.18-1.17c0,0-0.17,0.19-0.17,0.19c0.89-0.06,1.71-0.26,2.19-1.13c0,0-0.17,0.16-0.17,0.16
	c0.7-0.36,1.41-0.72,2.11-1.08c0,0-0.06,0.08-0.06,0.08c0.67-0.32,1.34-0.64,2.02-0.96c2.05-1.7,4.46-2.58,7.04-3.05
	c0.16,0.2,0.32,0.41,0.48,0.61c-11.28,14.38-22.49,28.81-33.86,43.12c-33.11,41.66-66.35,83.21-99.36,124.94
	c-4.37,5.52-9.8,9.13-15.71,12.59c-8.06,4.73-14.93,11.31-23.32,15.61c-2.38-0.72-4.35-0.55-5.07,2.34c0,0,0.09-0.1,0.09-0.1
	c-1.99-0.37-3.52,0.72-5.09,1.65c-25.35,14.96-50.7,29.91-76.05,44.88c-6.49,3.83-12.97,7.69-20.02,11.87
	c4.94,1.21,9.04,1.66,13.2,1.53c33.22,2.22,66.46,4.2,99.66,6.79c12.42,0.97,24.13-2.15,36.02-4.29
	c44.37-7.99,88.69-16.22,133.03-24.34c0.31-0.06,0.65,0.06,1.42,0.15c-1.9,1.92-3.48,3.74-5.84,4.68c-0.51,0.36-1.02,0.73-1.53,1.09
	c0,0,0.12-0.06,0.12-0.06c-1.18-0.02-2.25,0.15-3.32,0.8c-18.17,11.06-36.36,22.09-54.57,33.1c-38.4,23.21-76.78,46.48-115.26,69.56
	c-10.88,6.52-21.03,14.6-34.37,16.15c-6.57,0.76-13.04,2.48-19.54,3.85c-40.28,8.48-80.55,16.98-120.83,25.5
	c-7.55,1.6-15.07,3.28-24.09,5.24c8.87,4.83,15.61,10.23,23.5,13.76c9.37,7.32,19.89,12.85,29.87,19.21c4.31,2.75,8.85,5.15,13,8.12
	c13.37,9.58,29.6,11.39,44.52,16.76c2.99,1.07,6.57,0.81,8.83,3.65c-1.62,0.3-3.28,0.49-4.87,0.91
	c-17.47,4.66-34.92,9.38-52.39,14.05c-43.11,11.52-86.24,22.97-129.31,34.62c-3.39,0.92-6.46,0.84-9.69,0.12
	c-39.3-8.76-78.6-17.52-117.91-26.28c-1.59-0.36-3.58-1.11-4.49,0.79c-2.05,4.32-5.45,8-6.23,12.92c-2.94,2.35-4.19,5.84-5.89,8.99
	c-6.49,12.06-12.87,24.17-19.28,36.27c-10.12,0.29-20.25,0.54-30.37,0.87c-7.3,0.24-14.59,0.36-21.9,0.72
	c-19.09,0.93-38.22,0.91-57.33,1.35c-3.18,0.07-4.51-0.41-3.45-4.2c3.36-11.96,6.32-24.04,9.42-36.08c1.9-7.38,3.78-14.77,5.9-23.11
	c-6.01,3.33-10.91,6.09-15.85,8.77c-24.23,13.15-48.56,26.13-72.64,39.56c-4.01,2.24-9.32,2.98-11.64,7.87
	c-0.82-0.45-1.96-0.69-1.36-2.07c0.67-2.22,1.47-4.41,1.98-6.66c7.52-33.5,15.08-66.99,22.39-100.54c1.01-4.62,2.86-9.19,2.32-14.2
	c-3.04,4.22-5.88,8.48-8.19,13c-7.82,15.27-15.44,30.64-23.16,45.97c-1.03,2.05-1.86,4.23-4.71,4.65
	c-20.02,2.95-40.02,5.99-60.03,8.98c-21.32,3.19-42.64,6.39-63.98,9.51c-9.12,1.33-17.89,2.9-27.43,0.04
	c-60.35-18.11-120.87-35.63-181.38-53.2c-3.97-1.15-7.86-3.46-12.32-2.41c-0.63-0.48-1.64-0.86-1.8-1.46
	c-0.32-1.21,0.87-1.04,1.64-1.16c17.5-2.72,34.98-5.58,52.5-8.12c9.59-1.39,18.75-3.29,27.56-7.95
	c17.56-9.3,35.65-17.61,53.52-26.33c6.85-2.56,13.15-6.14,19.42-9.89c-2.22-1.1-4.14-1.59-6.08-1.99
	c-44.69-9.21-89.37-18.46-134.09-27.53c-4.44-0.9-8.82-2.97-13.57-1.8c-4.75-0.07-8.73-2.7-13.12-3.95
	c-0.49-2.02-2.32-2.72-3.78-3.72c-25.67-17.54-51.35-35.05-77.04-52.56c-30.9-21.07-61.77-42.2-92.75-63.15
	c-5.73-3.87-10.82-8.82-17.55-11.13c0,0,0.27,0.05,0.27,0.05c-0.62-0.41-1.25-0.82-1.87-1.23c0,0-0.13-0.24-0.13-0.24
	C-106.43,494.35-106.94,494.07-107.45,493.8z M155.07,459.87c-0.06-0.12-0.1-0.27-0.2-0.36c-0.06-0.06-0.19-0.03-0.3-0.04
	c0.16,0.14,0.31,0.28,0.47,0.42c-0.18,0.89,0.12,1.6,0.83,2.14c0.25,0.61,0.4,1.29,0.76,1.82c16,24.13,32.04,48.23,47.98,72.4
	c1.58,2.39,3.57,3.7,6.15,4.72c46.98,18.66,93.94,37.39,140.9,56.1c7.21,2.87,14.25,6.75,22.4,2.96c1.99-0.93,3.35,0.86,4.68,2.12
	c5.93,5.6,11.9,11.15,17.79,16.79c10.43,9.97,20.51,19.78,36.17,21.92c16.19,2.21,31.58,9.14,48.48,7.97
	c9.61-0.66,19.31-0.14,28.97-0.07c1.36,0.01,2.95-0.65,4.35,0.89c-7.13,8.58-14.42,16.96-21.22,25.72
	c-2.87,3.71-7.4,6.31-8.26,11.48c-0.8,0.05-1.5,0.24-1.52,1.23c0,0.11,0.2,0.32,0.3,0.31c1-0.05,1.12-0.8,1.19-1.58
	c1.24-1.08,2.58-2.07,3.7-3.26c9.65-10.28,19.32-20.54,28.83-30.95c2.56-2.8,5.27-4.31,9.13-3.83c2.67,0.33,5.26-0.03,7.55-1.8
	c5.49-4.25,11.17-8.25,16.54-12.64c3.02-2.47,5.51-2.97,8.79-0.44c7.19,5.56,14.66,10.72,22.29,15.68c2.21,1.44,4.18,2.29,6.81,2.28
	c19.98-0.04,39.96,0.05,59.93,0.09c2.16,0,4.25-0.03,6.35-0.88c10.18-4.12,20.76-7.05,31.29-10.06c3.99-1.14,6.03-2.96,6.96-7.12
	c4.65-20.7,9.59-41.32,14.46-61.97c1.18-5.02,1.6-5.08,5.33-1.57c5.4,5.08,9.93,11.14,17.29,15.32c0.58-9.06,1.96-17.52,1.58-26.12
	c-0.04-0.86-0.75-1.88-1.44-2.5c-3.08-2.77-6.31-5.38-9.42-8.12c-9.97-8.77-19.88-17.59-29.87-26.33c-2.53-2.21-2.09-3.5,0.65-5.15
	c6.55-3.92,12.89-8.19,19.41-12.15c2.33-1.42,4.36-3.5,7.48-4.16c0.11,1.59,0.13,2.9,0.3,4.18c0.76,5.61,4.81,2.27,7.39,2.54
	c3.04,0.32,2.98-1.96,2.5-4.07c-1.02-4.43-2.12-8.84-3.25-13.51c-2.75,1.85-1.74,5.35-4.45,7.19c-2.17-7.14-4.23-14.1-6.43-21.02
	c-0.51-1.61-0.72-3.47-3.35-3.62c-8.26-0.47-16.5-1.44-24.76-1.85c-8.15-0.41-8.16-0.21-4.62-7.09c0.26-0.35,0.52-0.7,0.77-1.05
	c-0.13-0.08-0.26-0.16-0.4-0.24c-0.12,0.44-0.23,0.88-0.35,1.32c-4.35,0.47-6.96,3.93-9.74,6.52c-3.53,3.29-7.57-0.58-11.19,2.03
	c-2.66,1.92-6.66,1.83-9.85,3.17c-13.19,5.51-26.23,6.37-39.23-0.52c-0.72-0.38-1.57-0.53-2.36-0.8
	c-10.95-3.73-21.9-7.46-33.28-11.33c3.82,8.04,26.54,36.84,31.96,41.06c1.72,1.34,3.03,0.87,4.52-0.02
	c3.72-2.22,7.43-4.44,11.14-6.67c9.07-5.45,18.14-10.9,27.5-16.52c0.9,3.65,0.44,5.99-2.56,7.77c-2.1,1.25-4.06,2.89-5.3,5.17
	c-4.1,7.55-8.16,15.12-12.38,22.6c-1.41,2.49-0.69,3.33,1.85,4.07c10.37,3.02,20.69,6.23,31.02,9.39c3.44,1.05,6.74,1.75,9.8-1.06
	c0.97-0.89,3.26-1.34,2.81,0.64c-1.1,4.82-2.59,9.67-4.78,14.09c-1.45,2.92-5.25,0.77-7.84,1.71c-0.15,4.5-0.82,9.16,3.49,12.41
	c12.02,2.7,23.96,5.73,37.22,9.74c-10.21,3.47-18.93,6.52-27.72,9.36c-2.73,0.88-5.24,1.92-7.42,3.84
	c-13.68,12.07-27.45,24.04-41.05,36.19c-2.4,2.15-4.39,2.38-7.11,0.91c-7.45-4.03-15.01-7.85-22.48-11.84
	c-7.47-3.98-14.84-8.15-22.35-12.04c-2.49-1.29-2.45-2.32-0.97-4.47c3.67-5.33,7.23-10.75,10.54-16.31
	c4.82-8.11,10.9-15.44,14.8-24.11c0.14-0.18,0.29-0.36,0.43-0.54c-0.17,0.15-0.34,0.3-0.51,0.46c-1.1-0.02-1.87,0.61-2.59,1.32
	c-11.23,11.15-22.43,22.32-33.7,33.43c-1.69,1.66-2.1,3.76-2.51,5.84c-2,10.09-3.13,20.31-3.87,30.55
	c-0.29,3.98-2.03,4.24-5.08,3.86c-5.42-0.68-10.85-1.31-16.29-1.81c-15.68-1.42-31.39-2.6-47.05-4.29c-3.18-0.34-6.61-0.12-9.67-1.9
	c-15.66-9.1-31.39-18.08-47.07-27.13c-13.24-7.64-26.48-15.28-39.67-23c-2.57-1.5-4.13-1.74-5.75,1.44
	c-2.4,4.73-5.61,9.05-8.16,13.71c-1.58,2.89-3.41,3.67-6.49,2.55c-18.27-6.66-36.57-13.26-54.87-19.84
	c-14.86-5.34-29.68-10.8-44.65-15.84c-4.59-1.54-9.15-3.01-12.94-5.96c-29.38-22.86-58.62-45.91-88.08-68.67
	c-5.2-4.02-9.78-9-16.1-11.49C156.2,460.84,155.92,460.13,155.07,459.87z M357.04,382.89c-0.27-0.39-0.55-0.78-0.82-1.17
	c-4.96-12.84-11.89-24.7-18.15-36.89c-0.04-0.08-0.46,0.03-0.98,0.07c3.54,8.44,6.73,16.89,10.62,25.01
	c2.08,4.36,3.65,9.33,8.2,12.13c0.37,0.29,0.74,0.58,1.11,0.87c0.13,0.43,0.26,0.87,0.39,1.3c0.12-0.09,0.25-0.18,0.37-0.26
	C357.54,383.59,357.29,383.24,357.04,382.89z M721.95,185.92c1.99-1.07,2.7-2.91,3-4.99c0.09-0.12,0.19-0.24,0.28-0.36
	c-0.08,0.14-0.16,0.27-0.24,0.41c-2.52,0.76-2.92,2.78-2.98,5c-1.94,0.15-2.11,1.48-2.01,3c-1.79-0.11-2.63,1.21-3.53,2.39
	c-12.4,16.39-24.62,32.92-37.3,49.08c-3.5,4.45-3.36,8.8-2.98,13.81c2.11-0.57,2.52-2.13,3.31-3.33
	c11.54-17.42,23.09-34.83,34.57-52.29c2.08-3.15,4.73-5.98,5.88-9.7C721.31,188.38,721.93,187.34,721.95,185.92z M729.82,605.67
	c-0.86,0.45-1.86,0.75-2.57,1.38c-6.58,5.84-13.14,11.71-19.65,17.62c-3.77,3.43-7.44,6.97-11.16,10.46
	c4.42-1.22,8.04-3.45,11.8-5.42c10.14-5.31,15.94-14.58,21.94-23.7c0.3-0.23,0.78-0.43,0.2-0.84
	C730.33,605.15,730.02,605.5,729.82,605.67z M757.96,466.85c7.46-4.24,15.2-8.05,20.5-15.22c5.81-7.87,11.78-15.62,17.59-23.49
	c2.02-2.74,3.78-5.67,6.02-9.05c-2.58,0.24-3.31,1.48-4.17,2.42c-10.19,11.13-20.6,22.09-30.36,33.59
	c-3.25,3.83-7.93,6.63-9.53,11.82c-0.12,0.03-0.26,0.04-0.37,0.1c-0.06,0.04-0.08,0.16-0.11,0.24
	C757.67,467.12,757.82,466.98,757.96,466.85z M708.01,403.92c-2.04,0.18-3.04,1.78-3.18,3.35c-0.41,4.67-3.75,7.48-6.18,10.94
	c-5.04,7.18-11.5,13.33-15.46,21.25c-3.71,7.42-7.19,14.95-10.71,22.47c-0.51,1.08-1.76,2.13-0.73,3.63
	c2.18-0.31,2.73-2.22,3.74-3.67c8.89-12.81,17.76-25.63,26.67-38.42c0.71-1.03,1.33-2.68,2.93-2.13c1.32,0.46,0.65,2.03,0.87,3.11
	c0.12,0.59,0.24,1.18,0.5,2.41c2.98-3.17,5.57-5.82,5.57-9.98l-0.06,0.05c3.66-0.56,1.91-2.6,1.06-4.2c-1.6-3-3.36-5.91-5.05-8.85
	c0.34-0.34,0.67-0.67,1.01-1.01c0.76-0.28,1.67-0.38,2.25-0.87c13.05-10.96,26.11-21.9,39.03-32.99c2.64-2.27,3.87-2.58,5.06,1.19
	c1.81,5.75,4.07,11.36,6.15,17.07c2.03-0.93,2.45-2.62,3.2-4.06c6.96-13.56,13.92-27.12,20.86-40.68
	c5.2-10.16,10.37-20.34,15.56-30.51c0.14-0.2,0.29-0.39,0.43-0.59c-0.2,0.14-0.4,0.28-0.6,0.42c-1.13,0.69-2.38,1.24-3.38,2.08
	c-7.22,6.11-14.38,12.29-21.57,18.43c-0.98,0.84-2.23,2.79-3.1,2.03c-2.46-2.16-3.02,0.13-4.1,1.26
	c-16.08,16.8-32.45,33.35-47.15,51.41c-4.26,5.23-9.57,9.66-12.59,15.87C708.68,403.25,708.34,403.59,708.01,403.92z M696.97,295.9
	c1.51,0.07,2.41-0.94,3.37-1.87c13.89-13.3,27.75-26.63,42.4-39.1c1.58-1.35,2.33-3.21,3.13-5.01c4.66-10.46,9.43-20.88,13.83-31.45
	c3.12-7.48,7.26-14.54,9.4-22.43c0.49-0.34,1.06-1.01,0.48-1.31c-0.71-0.37-0.57,0.64-0.76,1.07c-1.69,0.94-2.47,2.65-3.49,4.16
	c-9.73,14.47-19.14,29.16-29.29,43.32c-8.79,12.28-18.55,23.85-27.6,35.95c-4.03,5.39-9.03,10.18-11.43,16.72
	c-0.15,0.13-0.3,0.27-0.44,0.4c0.09-0.02,0.22-0.02,0.26-0.08C696.9,296.16,696.92,296.02,696.97,295.9z M557.76,439.9
	c-3.53,5.76-6.61,10.61-9.49,15.58c-1.22,2.1-2.66,2.47-4.96,2.08c-11.75-1.99-23.52-3.85-35.3-5.65c-1.99-0.3-3.35-0.76-3.99-2.97
	c-6.88-23.92-13.88-47.8-20.71-71.72c-0.74-2.6-1.31-5.18-0.73-8.24c4.04-21.13,7.69-42.33,11.41-63.52
	c1.19-6.8,0.99-6.27-5.93-7.82c-5.46-1.22-7.99,0.54-10.37,5.16c-7.99,15.52-16.3,30.88-24.6,46.24c-1.56,2.9-2.28,5.83-2.09,9.07
	c1.04,18.04,2,36.09,3.13,54.13c0.19,2.96,1.12,5.8,2.6,8.51c9.48,17.38,18.86,34.82,28.26,52.24c1.45,2.7,3.38,4.7,6.26,6.11
	c7.33,3.57,14.5,7.47,21.72,11.27c10.54,5.55,10.54,5.57,2.57,14.48c-4.32,4.84-4.42,7.66-0.84,13.18c1.06,1.64,2.09,2.01,3.65,1.04
	c3.04-1.91,4.95-0.28,6.63,2.07c3.44,4.81,7.84,8.2,13.3,10.74c8.86,4.13,17.94,7.92,26.01,13.6c5.47,3.85,10.59,3.88,16.4-0.13
	c5.72-3.95,12.22-6.76,18.43-9.97c3.14-1.62,4.02-2.94,0.66-5.59c-11.6-9.15-22.85-18.76-34.57-27.76
	c-4.38-3.36-6.45-6.83-6.23-12.49C559.63,473.33,558.35,457.14,557.76,439.9z M990.98,412.09c-0.33-0.42-0.65-0.85-0.98-1.27
	c-6.89,4.45-13.85,8.73-20.5,13.64c-27.1,20.04-54.43,39.77-81.66,59.64c-3.89,2.84-7.82,5.65-11.47,8.78
	c-1.97,1.69-2.28,5.03-5.8,5.33c-3.81,0.32-4.93,3.19-5.56,6.54c-2.64,13.98-5.4,27.93-8.12,41.9c-0.51,2.59-1.77,4.22-4.51,5.25
	c-33,12.32-65.99,24.66-98.84,37.34c-6.37,2.46-13.96,3.06-17.97,10.23c-1.28,2.3-2,3.43,0.92,4.15c12.76,3.14,25.52,9.8,38.33,0.03
	c1.13-0.87,2.77-1.06,4.15-1.63c44.08-18.23,88.14-36.49,132.25-54.66c2.49-1.02,4.05-2.51,5.37-4.79
	c10.73-18.52,21.58-36.98,32.38-55.46c4.56-7.8,9.13-15.61,13.77-23.55c-2.3-0.81-3.77,0.3-5.22,0.86
	c-15.77,6.09-31.49,12.3-47.25,18.44c-1.25,0.49-2.89,2.13-3.87,0.26c-0.75-1.43,1.31-1.98,2.28-2.78
	c23.18-19.15,46.37-38.28,69.54-57.44C982.51,419.34,986.73,415.69,990.98,412.09z M515.82,524.18c-5.19-2.61-10.27-4.98-15.17-7.69
	c-3.49-1.93-6.7-2.27-10.41-0.52c-3.59,1.7-7.47,2.78-11.18,4.22c-2.46,0.95-3.78,0.34-5.11-2.13
	c-8.37-15.49-16.98-30.85-25.45-46.29c-1.07-1.95-2.4-2.88-4.71-2.95c-8.29-0.23-16.58-0.74-24.88-0.96
	c-7.02-0.19-7.03-0.08-5.27,7.18c-6.26-3.28-12.35-5.45-16.8-10.85c-10.89-13.2-22.23-26.03-33.11-39.24
	c-5.27-6.4-12-11.8-15.62-19.32c-6.2-12.87-11.6-26.13-17.39-39.2c-3.53-7.98-7.14-15.92-10.72-23.88
	c-0.89,1.52-1.03,2.78-0.87,4.01c1.86,14.64,3.85,29.26,5.59,43.91c0.41,3.5,1.81,6.16,3.99,8.85c14,17.33,27.6,34.98,41.85,52.1
	c6.7,8.05,12.06,17.67,22.86,21.66c5.75,2.12,11.1,5.31,16.75,7.76c4.98,2.16,9.64,4.35,11.09,10.37c0.34,1.43,1.94,2.67,3.19,3.74
	c12.07,10.44,24.37,20.4,38.72,27.87c9.76,5.07,18.7,10.48,30.23,6.23c3.61-1.33,5.33,0.39,3.64,4.41c-0.62,1.49-0.7,3.22-0.93,4.86
	c-0.93,6.56-0.92,6.56,5.77,4.76c7.65-2.06,7.65-2.06,5.26-9.47c-2.02-6.26-1.75-6.74,4.63-7.65
	C513.1,525.79,514.37,525.54,515.82,524.18z M721.72,426.49c-0.27,0.16-0.53,0.32-0.8,0.48c2.88,6.65,5.79,13.29,8.64,19.96
	c1.1,2.57,2.33,1.34,3.8,0.36c14.62-9.75,29.06-19.78,44.01-29c6.42-3.96,9.83-9.5,12.93-15.84c7.39-15.11,15.04-30.09,22.52-45.15
	c0.76-1.54,2.21-2.94,1.65-5.28c-2.27,0.92-3.13,2.96-4.45,4.51c-11.9,14.01-20.82,30.53-35.43,42.25
	c-13.04,10.46-24.34,23.07-39.54,30.86c-7.35,3.77-7.08,4.28-12.16-2.28C722.6,426.98,722.11,426.77,721.72,426.49z M981.41,172.39
	c-0.41-0.41-0.82-0.83-1.22-1.24c-2.95,0.91-4.5,3.68-6.71,5.52c-12.48,10.41-24.87,20.92-37.24,31.46
	c-10.86,9.25-21.58,18.66-32.5,27.84c-2.01,1.69-3.18,3.39-2.75,5.92c0.91,5.35,0.98,10.77,1.08,17.82
	C929.18,229.87,955.29,201.13,981.41,172.39z M407.23,413.76c-0.33,0.09-0.66,0.19-0.99,0.28c-0.67,4.58-1.27,9.17-2.02,13.74
	c-1.84,11.25-2.89,22.37,3.93,32.57c1.26,1.89,1.01,4.76,4.16,6.27C410.57,448.61,408.9,431.18,407.23,413.76z M731.25,459.17
	c-0.92,7.23-1.72,13.9-2.63,20.56c-0.58,4.23,1.18,5.9,4.96,3.77c6.24-3.52,12.1-7.73,18.74-12.06c-3.49-1.06-5.99-1.62-8.64-1.78
	c-5.58-0.34-11.03-1.02-11.07-8.62C732.62,460.56,731.93,460.08,731.25,459.17z M619.37,217.11c-2.43,1.32-2.65,2.74-3.18,3.9
	c-5.28,11.45-10.54,22.91-15.7,34.42c-0.58,1.29-2.6,3.2-0.27,4.18c1.98,0.83,4.65,1.07,5.7-2.11
	C610.28,244.32,614.69,231.16,619.37,217.11z M319.82,275.83c-1.64,12.58,3.17,38.41,7.86,43.61
	C325.01,304.64,322.41,290.23,319.82,275.83z M486.76,166.85c-2.61,5.44-1.99,9.66,1.23,12.26c4.13,3.34,7.62,3.55,12.03,0.18
	C491.75,179.32,488.16,174.49,486.76,166.85z M594.83,204.7c-1.58,7.99-0.08,12.06,4.77,14.39c3.49,1.68,6.68,1.15,8.75-1.45
	C601.08,217.92,598.52,215.59,594.83,204.7z M603.85,135.84c-2.75,5.42-1.77,9.57,2.45,12.74c3.43,2.58,6.79,2.44,9.72-0.38
	C609.39,148.11,604.79,144.3,603.85,135.84z M683.39,328.1c0.66,0.1,1.32,0.21,1.98,0.31c2-6.51,3.99-13.01,5.99-19.52
	c-0.4-0.12-0.79-0.24-1.19-0.37C687.9,315.05,682.38,320.53,683.39,328.1z M705.99,385.47c-2.81-1.71-4.74-2.97-6.76-4.07
	c-0.95-0.52-2.24-2.43-3.04-0.08c-0.53,1.55-0.48,3.37,1.97,3.73C700.44,385.38,702.66,386.32,705.99,385.47z M318.29,272.91
	c0.66-1.07,1.07-2.04,0-2.85C318.29,271.05,318.29,271.98,318.29,272.91z M619.46,215.34c0.08-0.29,0.13-0.47,0.18-0.65
	c-0.11,0.04-0.3,0.07-0.3,0.11C619.32,214.93,619.39,215.07,619.46,215.34z M335.37,340.05l0.31,0.03l-0.13-0.44L335.37,340.05z"/>
<path class="st1" d="M100.97,716.78c4.46-1.05,8.34,1.26,12.32,2.41c60.51,17.56,121.03,35.09,181.38,53.2
	c9.54,2.86,18.31,1.3,27.43-0.04c21.33-3.12,42.65-6.32,63.98-9.51c20.01-2.99,40.01-6.03,60.03-8.98c2.85-0.42,3.68-2.59,4.71-4.65
	c7.72-15.32,15.34-30.69,23.16-45.97c2.32-4.53,5.15-8.78,8.19-13c0.55,5.01-1.31,9.58-2.32,14.2
	c-7.31,33.55-14.87,67.04-22.39,100.54c-0.51,2.25-1.31,4.44-1.98,6.66c-1.67-8.56-2.86-17.16-3.24-25.9
	c-0.12-2.67-1.61-5.26-0.87-8.15c0.26-1.03-0.39-2.07-1.69-1.84c-11.71,2.05-23.56,1.56-35.35,2.14
	c-33.6,1.66-67.21,3.25-100.76,5.67c-16.46,1.19-32.93,1.54-49.37,2.56c-9.6,0.6-19.29,0.33-28.99,2.16
	c-8.06,1.53-16.71,1.17-25.11,1.47c-3.99,0.15-6.45-3.09-9.36-5.04c-22.11-14.83-44.12-29.83-66.12-44.82
	C123.36,732.25,112.18,724.49,100.97,716.78z"/>
<path class="st1" d="M456.84,813.72c2.32-4.89,7.63-5.63,11.64-7.87c24.08-13.43,48.4-26.41,72.64-39.56
	c4.94-2.68,9.84-5.44,15.85-8.77c-2.13,8.34-4,15.73-5.9,23.11c-3.1,12.04-6.06,24.11-9.42,36.08c-1.06,3.79,0.26,4.28,3.45,4.2
	c19.11-0.44,38.25-0.43,57.33-1.35c7.3-0.35,14.6-0.47,21.9-0.72c10.12-0.33,20.25-0.59,30.37-0.87
	c-15.21,8.5-30.4,17.03-45.64,25.49c-18.1,10.04-36.31,19.88-54.27,30.17c-2.58,1.48-3.36-0.2-4.55-0.94
	c-15.93-9.87-31.79-19.84-47.63-29.85C487.32,833.17,472.09,823.43,456.84,813.72z"/>
<path class="st1" d="M679.86,772.72c0.78-4.92,4.18-8.6,6.23-12.92c0.9-1.9,2.89-1.15,4.49-0.79c39.3,8.75,78.6,17.52,117.91,26.28
	c3.23,0.72,6.3,0.8,9.69-0.12c43.07-11.66,86.2-23.11,129.31-34.62c17.47-4.67,34.92-9.38,52.39-14.05
	c1.59-0.42,3.24-0.61,4.87-0.91c-11.03,9.66-23.04,18.08-34.51,27.17c-10,7.92-20.16,15.64-30.24,23.45
	c-7.8,6.05-15.51,12.23-23.45,18.09c-1.64,1.21-3.87,1.52-6.33,1.48c-10.89-0.18-21.61-2.04-32.36-3.25
	c-10.39-1.17-20.83-2.26-31.21-3.68c-7.3-1-14.84-1.48-22.21-2.29c-7.52-0.82-15.11-1.79-22.63-2.65
	c-7.21-0.83-14.52-1.58-21.77-2.26c-7.55-0.71-15.14-1.33-22.65-2.72c-3.92-0.72-8.06-0.54-12.1-1.07
	c-11.25-1.47-22.61-2.07-33.81-4.1c-2.87-0.52-6.06-0.77-8.7-0.59C692.98,783.83,686.63,778.06,679.86,772.72z"/>
<path class="st1" d="M908.53,687.84c-7.89-3.53-14.63-8.93-23.5-13.76c9.01-1.96,16.54-3.65,24.09-5.24
	c40.27-8.51,80.55-17.01,120.83-25.5c6.5-1.37,12.96-3.09,19.54-3.85c13.34-1.55,23.5-9.63,34.37-16.15
	c38.48-23.08,76.86-46.35,115.26-69.56c18.21-11,36.4-22.04,54.57-33.1c1.07-0.65,2.15-0.82,3.32-0.8
	c-13.8,11.24-27.56,22.53-41.41,33.7c-28.78,23.2-57.61,46.32-86.4,69.51c-1.72,1.38-3.49,2.41-5.64,3.02
	c-25.54,7.2-51.09,14.4-76.59,21.75c-20.3,5.85-40.51,12.04-60.82,17.85c-25.73,7.37-51.52,14.51-77.28,21.76
	C908.73,687.51,908.64,687.72,908.53,687.84z"/>
<path class="st0" d="M679.07,802.71c2.77-6.28,8.32-9.51,14.19-11.74c10.63-4.03,21.22-3.94,32.12,0.46
	c18.45,7.45,27.34,28.51,22.46,47.46c-1.74,6.76-5.77,11.81-10.03,16.9c-0.6,0.39-1.21,0.78-1.81,1.17c0,0,0.26-0.01,0.26-0.01
	c-5.96,2.29-11.51,5.7-18,6.56c-2.3,0.31-4.63,0.62-4.29-2.82c0.31-3.21-1.23-3.79-4.09-3.93c-7.99-0.37-15.67-2.16-22.84-5.89
	c-1.38-0.72-3.35-1.23-2.66-2.93c2.8-6.86-1.54-10.61-5.91-14.28c-2.33-1.96-2.06-3.5-0.57-5.87c1.36-2.16,4.03-4.85,2.73-7.16
	C677.27,814.72,678.6,808.75,679.07,802.71z"/>
<path class="st1" d="M1243.82,283.58c-4.48,4.95-10.9,6.76-16.48,9.8c-36.6,19.95-73.41,39.54-110.12,59.29
	c-15.21,8.18-30.36,16.47-45.55,24.69c-1.57,0.85-3.22,1.54-5.93,2.83c4.2-9.6,10.46-16.74,14.3-25.21
	c28.55-12.58,57.09-25.19,85.66-37.73c24.17-10.61,48.36-21.16,72.55-31.7C1240.05,284.76,1241.74,283.58,1243.82,283.58z"/>
<path class="st1" d="M-104.19,496.04c6.73,2.31,11.82,7.25,17.55,11.13c30.99,20.95,61.85,42.08,92.75,63.15
	c25.68,17.51,51.37,35.02,77.04,52.56c1.46,1,3.29,1.7,3.78,3.72c-18.44-7.56-37.01-14.81-55.24-22.82
	c-7.47-3.28-13.11-9.67-19.55-14.68c-20.72-16.13-41.23-32.52-61.8-48.83c-18.03-14.29-36.04-28.61-54.04-42.94
	C-104,497.07-104.03,496.47-104.19,496.04z"/>
<path class="st1" d="M81.08,306.88c8.22,8.95,15.16,18.91,22.59,28.48c20.09,25.86,39.99,51.86,60.08,77.73
	c4.46,5.74,11.1,8.92,16.87,13.07c27.67,19.93,55.44,39.71,83.17,59.54c1.03,0.74,2.42,1.14,2.68,3.11
	c-7.61,0.35-14.42,0.82-21.24-4.86c-34.96-29.12-70.46-57.58-105.61-86.48c-5.57-4.58-8.19-11.64-12.06-17.62
	c-10.83-16.76-21.46-33.66-32.16-50.51c-0.46-0.72-0.86-1.43-1.87-1.35C89.64,320.8,84.45,314.37,81.08,306.88z"/>
<path class="st1" d="M100.05,630.55c4.75-1.16,9.13,0.9,13.57,1.8c44.72,9.07,89.4,18.32,134.09,27.53c1.94,0.4,3.86,0.89,6.08,1.99
	c-6.26,3.75-12.56,7.33-19.42,9.89c-7.33-2.37-14.63-4.85-21.99-7.09c-12.68-3.86-25.41-7.57-38.13-11.34
	c-11.88-3.53-23.77-7.03-35.64-10.58c-8.08-2.42-16.2-4.71-24.18-7.42C109.65,633.7,104.55,633.01,100.05,630.55z"/>
<path class="st1" d="M679.07,802.71c-0.47,6.05-1.8,12.02,1.55,17.93c1.3,2.31-1.37,4.99-2.73,7.16c-1.49,2.37-1.76,3.91,0.57,5.87
	c4.37,3.68,8.72,7.43,5.91,14.28c-0.7,1.7,1.28,2.21,2.66,2.93c7.18,3.73,14.85,5.52,22.84,5.89c2.86,0.13,4.4,0.71,4.09,3.93
	c-0.34,3.44,1.99,3.13,4.29,2.82c6.49-0.87,12.04-4.28,18-6.56c-4.35,6.52-11.34,8.17-18.29,9.8c-8.79,2.06-17.46,1.82-25.61-2.48
	c-8.44-4.45-14.93-10.99-18.79-19.74c-1.96-4.44-2.99-9.28-4.47-13.93c-0.79-2.51,0.84-4.68,1.11-7.06
	C671.09,815.84,672.22,807.97,679.07,802.71z"/>
<path class="st1" d="M994.13,535.87c-4.16,0.13-8.26-0.31-13.2-1.53c7.04-4.18,13.52-8.04,20.02-11.87
	c25.35-14.96,50.7-29.92,76.05-44.88c1.57-0.93,3.1-2.02,5.09-1.65c-0.19,2.27-2.29,2.69-3.72,3.63
	c-26.69,17.64-53.43,35.23-80.13,52.86C996.76,533.42,994.91,534.02,994.13,535.87z"/>
<path class="st1" d="M84.63,452.95c7.76,2.35,13.81,7.72,20.49,11.91c23.33,14.61,46.47,29.53,69.64,44.41
	c2.51,1.61,7.23,2.72,6.49,5.64c-0.61,2.43-4.97-0.65-7.67,0.08c-20.71-14.38-41.44-28.74-62.14-43.15
	C102.48,465.58,93.57,459.24,84.63,452.95z"/>
<path class="st1" d="M1082,476.05c0.72-2.89,2.69-3.06,5.07-2.34C1085.53,474.82,1083.99,475.93,1082,476.05z"/>
<path class="st1" d="M-105.79,494.86c0.62,0.41,1.25,0.82,1.87,1.23C-105.17,496.64-105.4,495.63-105.79,494.86z"/>
<path class="st0" d="M1258.84,276.84c0.35-0.22,0.95-0.69,1.02-0.62c0.82,0.81-0.25,0.85-0.54,1.23
	C1259.16,277.25,1259,277.05,1258.84,276.84z"/>
<path class="st1" d="M1251.8,279.9c-0.67,0.32-1.34,0.64-2.02,0.96C1250.46,280.53,1251.13,280.21,1251.8,279.9z"/>
<path class="st1" d="M1249.85,280.77c-0.7,0.36-1.41,0.72-2.11,1.08C1248.15,280.92,1249.03,280.91,1249.85,280.77z"/>
<path class="st1" d="M1247.9,281.7c-0.47,0.87-1.3,1.06-2.19,1.13C1246.09,281.76,1247.03,281.79,1247.9,281.7z"/>
<path class="st1" d="M1245.89,282.63c-0.43,0.95-1.24,1.16-2.18,1.17C1244.06,282.7,1244.95,282.62,1245.89,282.63z"/>
<path class="st1" d="M736,856.95c0.6-0.39,1.21-0.78,1.81-1.17C737.33,856.36,736.98,857.15,736,856.95z"/>
<path class="st1" d="M-107.45,493.8c0.51,0.27,1.02,0.55,1.53,0.82C-106.35,494.2-107.41,494.95-107.45,493.8z"/>
<path class="st1" d="M1256.89,519.95c0.51-0.36,1.02-0.73,1.53-1.09C1257.91,519.22,1257.4,519.59,1256.89,519.95z"/>
<path class="st0" d="M1057.94,306.92c0.23-0.15,0.45-0.3,0.68-0.45c0,0.15,0,0.31,0,0.46c-0.25-0.04-0.49-0.07-0.74-0.11
	C1057.88,306.82,1057.94,306.92,1057.94,306.92z"/>
<path class="st1" d="M80.61,306.01c0.17,0.31,0.33,0.62,0.5,0.93C80.94,306.63,80.78,306.32,80.61,306.01z"/>
<path class="st1" d="M681.97,463.87c-3.53,6.88-3.52,6.68,4.62,7.09c8.26,0.41,16.5,1.38,24.76,1.85c2.63,0.15,2.84,2.01,3.35,3.62
	c2.2,6.91,4.26,13.87,6.43,21.02c2.71-1.84,1.69-5.34,4.45-7.19c1.13,4.67,2.24,9.08,3.25,13.51c0.48,2.11,0.54,4.39-2.5,4.07
	c-2.58-0.27-6.63,3.07-7.39-2.54c-0.17-1.29-0.19-2.59-0.3-4.18c-3.12,0.66-5.15,2.75-7.48,4.16c-6.52,3.97-12.87,8.23-19.41,12.15
	c-2.74,1.64-3.18,2.94-0.65,5.15c9.99,8.73,19.91,17.56,29.87,26.33c3.11,2.74,6.34,5.35,9.42,8.12c0.69,0.62,1.4,1.64,1.44,2.5
	c0.39,8.6-0.99,17.06-1.58,26.12c-7.36-4.18-11.89-10.24-17.29-15.32c-3.73-3.51-4.15-3.45-5.33,1.57
	c-4.87,20.64-9.81,41.27-14.46,61.97c-0.93,4.16-2.97,5.98-6.96,7.12c-10.53,3.01-21.11,5.94-31.29,10.06
	c-2.1,0.85-4.2,0.89-6.35,0.88c-19.98-0.04-39.96-0.13-59.93-0.09c-2.64,0.01-4.61-0.85-6.81-2.28
	c-7.63-4.96-15.1-10.12-22.29-15.68c-3.28-2.54-5.77-2.04-8.79,0.44c-5.37,4.39-11.05,8.4-16.54,12.64
	c-2.29,1.77-4.88,2.13-7.55,1.8c-3.85-0.48-6.57,1.03-9.13,3.83c-9.51,10.41-19.19,20.67-28.83,30.95c-1.12,1.19-2.46,2.18-3.7,3.26
	c0,0,0.04,0.04,0.04,0.04c0.86-5.17,5.39-7.77,8.26-11.48c6.8-8.76,14.09-17.14,21.22-25.72c-1.4-1.54-2.99-0.88-4.35-0.89
	c-9.66-0.07-19.36-0.6-28.97,0.07c-16.9,1.17-32.29-5.76-48.48-7.97c-15.66-2.14-25.74-11.95-36.17-21.92
	c-5.89-5.64-11.86-11.19-17.79-16.79c-1.33-1.26-2.69-3.04-4.68-2.12c-8.15,3.79-15.19-0.08-22.4-2.96
	c-46.96-18.71-93.92-37.44-140.9-56.1c-2.57-1.02-4.57-2.33-6.15-4.72c-15.94-24.17-31.98-48.27-47.98-72.4
	c-0.36-0.54-0.51-1.21-0.76-1.82c0.18-0.16,0.36-0.3,0.55-0.45c6.32,2.49,10.9,7.48,16.1,11.49c29.46,22.76,58.7,45.81,88.08,68.67
	c3.79,2.95,8.36,4.42,12.94,5.96c14.96,5.04,29.79,10.5,44.65,15.84c18.3,6.58,36.6,13.18,54.87,19.84
	c3.07,1.12,4.91,0.34,6.49-2.55c2.55-4.67,5.76-8.98,8.16-13.71c1.62-3.18,3.18-2.94,5.75-1.44c13.19,7.72,26.43,15.36,39.67,23
	c15.69,9.05,31.41,18.04,47.07,27.13c3.05,1.77,6.48,1.55,9.67,1.9c15.65,1.69,31.36,2.86,47.05,4.29
	c5.44,0.49,10.87,1.13,16.29,1.81c3.05,0.38,4.79,0.13,5.08-3.86c0.74-10.24,1.88-20.46,3.87-30.55c0.41-2.08,0.82-4.18,2.51-5.84
	c11.27-11.11,22.47-22.28,33.7-33.43c0.72-0.71,1.49-1.34,2.59-1.32l0.08,0.08c-3.9,8.67-9.98,16-14.8,24.1
	c-3.31,5.56-6.86,10.98-10.54,16.31c-1.48,2.15-1.52,3.18,0.97,4.47c7.51,3.89,14.88,8.06,22.35,12.04
	c7.47,3.98,15.03,7.81,22.48,11.84c2.72,1.47,4.71,1.23,7.11-0.91c13.6-12.16,27.37-24.12,41.05-36.19
	c2.18-1.93,4.69-2.96,7.42-3.84c8.79-2.85,17.52-5.9,27.72-9.36c-13.26-4.01-25.19-7.04-37.22-9.74c0.42-1.24,0.83-2.47,1.25-3.71
	c2.42-7.1,2.42-7.1-4.74-8.7c2.58-0.93,6.39,1.22,7.84-1.71c2.19-4.42,3.68-9.27,4.78-14.09c0.45-1.98-1.83-1.53-2.81-0.64
	c-3.07,2.81-6.37,2.11-9.8,1.06c-10.33-3.17-20.65-6.37-31.02-9.39c-2.55-0.74-3.26-1.58-1.85-4.07c4.22-7.48,8.28-15.05,12.38-22.6
	c1.24-2.28,3.2-3.92,5.3-5.17c2.99-1.79,3.46-4.12,2.56-7.77c-9.36,5.62-18.43,11.07-27.5,16.52c-3.71,2.23-7.42,4.45-11.14,6.67
	c-1.49,0.89-2.8,1.36-4.52,0.02c-5.42-4.21-28.15-33.01-31.96-41.06c11.38,3.87,22.33,7.6,33.28,11.33c0.79,0.27,1.64,0.41,2.36,0.8
	c13,6.89,26.04,6.03,39.23,0.52c3.19-1.33,7.19-1.25,9.85-3.17c3.62-2.61,7.65,1.26,11.19-2.03c2.78-2.59,5.38-6.04,9.74-6.52
	L681.97,463.87z"/>
<path class="st1" d="M557.76,439.9c0.59,17.24,1.87,33.43,1.24,49.65c-0.22,5.66,1.86,9.13,6.23,12.49
	c11.71,9,22.97,18.61,34.57,27.76c3.37,2.66,2.49,3.97-0.66,5.59c-6.21,3.21-12.71,6.03-18.43,9.97c-5.81,4.01-10.93,3.98-16.4,0.13
	c-8.07-5.68-17.15-9.47-26.01-13.6c-5.46-2.54-9.86-5.93-13.3-10.74c-1.68-2.35-3.59-3.98-6.63-2.07c-1.55,0.98-2.58,0.6-3.65-1.04
	c-3.58-5.51-3.48-8.34,0.84-13.18c7.96-8.91,7.97-8.93-2.57-14.48c-7.22-3.8-14.39-7.7-21.72-11.27c-2.88-1.4-4.81-3.41-6.26-6.11
	c-9.4-17.43-18.78-34.86-28.26-52.24c-1.48-2.71-2.42-5.55-2.6-8.51c-1.13-18.04-2.09-36.09-3.13-54.13
	c-0.19-3.25,0.53-6.18,2.09-9.07c8.29-15.36,16.61-30.72,24.6-46.24c2.38-4.62,4.91-6.39,10.37-5.16c6.92,1.55,7.12,1.02,5.93,7.82
	c-3.72,21.19-7.38,42.39-11.41,63.52c-0.58,3.05-0.02,5.63,0.73,8.24c6.83,23.93,13.84,47.81,20.71,71.72c0.63,2.2,2,2.66,3.99,2.97
	c11.78,1.8,23.55,3.66,35.3,5.65c2.3,0.39,3.74,0.01,4.96-2.08C551.15,450.51,554.24,445.66,557.76,439.9z"/>
<path class="st1" d="M990.98,412.09c-4.25,3.6-8.47,7.25-12.77,10.81c-23.17,19.16-46.36,38.29-69.54,57.44
	c-0.97,0.8-3.02,1.35-2.28,2.78c0.98,1.87,2.62,0.22,3.87-0.26c15.75-6.13,31.48-12.35,47.25-18.44c1.45-0.56,2.92-1.67,5.22-0.86
	c-4.64,7.94-9.2,15.75-13.77,23.55c-10.81,18.48-21.65,36.94-32.38,55.46c-1.32,2.28-2.88,3.77-5.37,4.79
	c-44.1,18.16-88.17,36.43-132.25,54.66c-1.38,0.57-3.01,0.76-4.15,1.63c-12.81,9.78-25.57,3.12-38.33-0.03
	c-2.92-0.72-2.2-1.86-0.92-4.15c4.01-7.17,11.6-7.78,17.97-10.23c32.86-12.68,65.85-25.02,98.84-37.34
	c2.74-1.02,4.01-2.66,4.51-5.25c2.73-13.96,5.48-27.92,8.12-41.9c0.63-3.35,1.76-6.21,5.56-6.54c3.51-0.3,3.83-3.64,5.8-5.33
	c3.65-3.13,7.58-5.94,11.47-8.78c27.23-19.87,54.56-39.6,81.66-59.64c6.65-4.92,13.61-9.19,20.5-13.64
	C990.33,411.24,990.66,411.66,990.98,412.09z M904.46,484.56l0.15-0.21l-0.25-0.03L904.46,484.56z"/>
<path class="st1" d="M515.82,524.18c-1.45,1.37-2.72,1.61-4.07,1.81c-6.38,0.91-6.65,1.38-4.63,7.65c2.39,7.41,2.39,7.41-5.26,9.47
	c-6.69,1.8-6.7,1.8-5.77-4.76c0.23-1.64,0.31-3.37,0.93-4.86c1.69-4.02-0.03-5.74-3.64-4.41c-11.53,4.25-20.47-1.15-30.23-6.23
	c-14.36-7.46-26.65-17.43-38.72-27.87c-1.24-1.07-2.84-2.31-3.19-3.74c-1.45-6.02-6.1-8.21-11.09-10.37
	c-5.64-2.45-11-5.63-16.75-7.76c-10.8-3.99-16.16-13.61-22.86-21.66c-14.25-17.12-27.85-34.77-41.85-52.1
	c-2.18-2.69-3.57-5.35-3.99-8.85c-1.73-14.65-3.73-29.28-5.59-43.91c-0.16-1.23-0.02-2.5,0.87-4.01c3.57,7.96,7.19,15.9,10.72,23.88
	c5.78,13.07,11.19,26.33,17.39,39.2c3.62,7.52,10.35,12.92,15.62,19.32c10.88,13.21,22.22,26.04,33.11,39.24
	c4.45,5.4,10.54,7.56,16.8,10.85c-1.76-7.26-1.75-7.37,5.27-7.18c8.29,0.22,16.58,0.73,24.88,0.96c2.31,0.06,3.64,0.99,4.71,2.95
	c8.47,15.44,17.08,30.8,25.45,46.29c1.33,2.47,2.65,3.08,5.11,2.13c3.72-1.44,7.6-2.52,11.18-4.22c3.71-1.76,6.92-1.41,10.41,0.52
	C505.55,519.2,510.64,521.57,515.82,524.18z"/>
<path class="st1" d="M709.02,402.92c3.02-6.22,8.33-10.64,12.59-15.87c14.69-18.06,31.07-34.61,47.15-51.41
	c1.08-1.13,1.64-3.42,4.1-1.26c0.87,0.76,2.12-1.19,3.1-2.03c7.19-6.14,14.35-12.32,21.57-18.43c1-0.85,2.25-1.4,3.38-2.08
	l0.17,0.17c-5.19,10.17-10.36,20.34-15.56,30.51c-6.94,13.57-13.9,27.12-20.86,40.68c-0.74,1.45-1.17,3.14-3.2,4.06
	c-2.08-5.72-4.34-11.32-6.15-17.07c-1.19-3.77-2.42-3.46-5.06-1.19c-12.93,11.1-25.99,22.04-39.03,32.99
	c-0.58,0.49-1.49,0.59-2.25,0.87C708.96,402.86,709.02,402.92,709.02,402.92z"/>
<path class="st1" d="M721.72,426.49c0.39,0.28,0.88,0.49,1.16,0.86c5.07,6.56,4.8,6.05,12.16,2.28c15.21-7.79,26.5-20.4,39.54-30.86
	c14.61-11.72,23.53-28.24,35.43-42.25c1.31-1.55,2.18-3.6,4.45-4.51c0.55,2.33-0.89,3.74-1.65,5.28
	c-7.47,15.07-15.12,30.05-22.52,45.15c-3.1,6.34-6.51,11.88-12.93,15.84c-14.94,9.22-29.39,19.26-44.01,29
	c-1.47,0.98-2.7,2.21-3.8-0.36c-2.85-6.67-5.76-13.31-8.64-19.96C721.18,426.81,721.45,426.65,721.72,426.49z"/>
<path class="st1" d="M981.41,172.39c-26.12,28.74-52.23,57.48-79.34,87.31c-0.1-7.06-0.18-12.47-1.08-17.82
	c-0.43-2.53,0.74-4.23,2.75-5.92c10.92-9.17,21.65-18.58,32.5-27.84c12.37-10.54,24.76-21.05,37.24-31.46
	c2.21-1.84,3.77-4.61,6.71-5.52C980.59,171.56,981,171.98,981.41,172.39z"/>
<path class="st1" d="M769.1,196.04c-2.15,7.89-6.29,14.94-9.41,22.42c-4.4,10.57-9.17,20.99-13.83,31.45
	c-0.8,1.8-1.55,3.66-3.13,5.01c-14.65,12.47-28.51,25.8-42.4,39.1c-0.96,0.92-1.86,1.94-3.37,1.87l0.04,0.04
	c2.4-6.53,7.4-11.32,11.43-16.72c9.05-12.1,18.81-23.67,27.6-35.95c10.14-14.17,19.56-28.86,29.29-43.32
	c1.02-1.51,1.8-3.21,3.49-4.16L769.1,196.04z"/>
<path class="st1" d="M712.01,416.88c0.01,4.17-2.59,6.81-5.57,9.98c-0.25-1.23-0.38-1.82-0.5-2.41c-0.22-1.08,0.45-2.65-0.87-3.11
	c-1.6-0.55-2.22,1.11-2.93,2.13c-8.91,12.8-17.78,25.62-26.67,38.42c-1,1.44-1.56,3.36-3.74,3.67c-1.03-1.5,0.22-2.55,0.73-3.63
	c3.51-7.52,7-15.05,10.71-22.47c3.96-7.92,10.43-14.07,15.46-21.25c2.43-3.47,5.77-6.27,6.18-10.94c0.14-1.57,1.14-3.17,3.18-3.35
	l-0.05-0.05c1.69,2.95,3.45,5.86,5.05,8.85c0.86,1.6,2.6,3.64-1.06,4.2c-0.21-0.41,0.51-1.42-0.74-1.15
	C711.47,416.14,711.74,416.51,712.01,416.88z"/>
<path class="st1" d="M719.96,188.93c-1.15,3.72-3.8,6.54-5.88,9.7c-11.48,17.46-23.04,34.87-34.57,52.29
	c-0.79,1.2-1.2,2.76-3.31,3.33c-0.38-5.01-0.52-9.35,2.98-13.81c12.68-16.16,24.9-32.69,37.3-49.08c0.9-1.18,1.74-2.5,3.53-2.39
	C720.01,188.97,719.96,188.93,719.96,188.93z"/>
<path class="st1" d="M758.01,466.9c1.6-5.18,6.28-7.99,9.53-11.82c9.76-11.5,20.17-22.45,30.36-33.59c0.86-0.94,1.59-2.18,4.17-2.42
	c-2.24,3.38-4,6.32-6.02,9.05c-5.81,7.87-11.78,15.62-17.59,23.49c-5.3,7.17-13.04,10.99-20.5,15.22L758.01,466.9z"/>
<path class="st1" d="M407.23,413.76c1.67,17.42,3.34,34.85,5.07,52.87c-3.15-1.51-2.9-4.38-4.16-6.27
	c-6.81-10.2-5.77-21.33-3.93-32.57c0.75-4.57,1.35-9.16,2.02-13.74C406.56,413.95,406.89,413.85,407.23,413.76z"/>
<path class="st1" d="M731.25,459.17c0.69,0.91,1.37,1.39,1.37,1.88c0.04,7.6,5.49,8.27,11.07,8.62c2.64,0.16,5.15,0.72,8.64,1.78
	c-6.64,4.32-12.5,8.53-18.74,12.06c-3.78,2.13-5.54,0.46-4.96-3.77C729.53,473.08,730.33,466.41,731.25,459.17z"/>
<path class="st1" d="M619.37,217.11c-4.69,14.05-9.1,27.21-13.45,40.38c-1.05,3.18-3.73,2.94-5.7,2.11
	c-2.34-0.98-0.31-2.89,0.27-4.18c5.16-11.5,10.42-22.97,15.7-34.42C616.72,219.85,616.94,218.42,619.37,217.11z"/>
<path class="st1" d="M730.18,606.03c-6,9.11-11.8,18.39-21.94,23.69c-3.76,1.97-7.38,4.2-11.8,5.42c3.72-3.49,7.39-7.03,11.16-10.46
	c6.51-5.92,13.07-11.79,19.65-17.62c0.71-0.63,1.71-0.93,2.57-1.38C729.94,605.79,730.06,605.91,730.18,606.03z"/>
<path class="st1" d="M319.82,275.83c2.6,14.4,5.19,28.8,7.86,43.61C322.99,314.25,318.18,288.41,319.82,275.83z"/>
<path class="st1" d="M355.91,382.04c-4.55-2.8-6.11-7.77-8.19-12.13c-3.88-8.12-7.08-16.57-10.62-25.01
	c0.52-0.04,0.93-0.15,0.98-0.07c6.26,12.19,13.19,24.06,18.15,36.9C356.22,381.73,355.91,382.04,355.91,382.04z"/>
<path class="st1" d="M486.76,166.85c1.4,7.64,4.99,12.47,13.26,12.44c-4.41,3.36-7.9,3.15-12.03-0.18
	C484.77,176.51,484.15,172.3,486.76,166.85z"/>
<path class="st2" d="M664.1,545.19c7.16,1.6,7.16,1.6,4.74,8.7c-0.42,1.24-0.83,2.47-1.25,3.71
	C663.28,554.35,663.96,549.7,664.1,545.19z"/>
<path class="st1" d="M594.83,204.7c3.69,10.89,6.25,13.22,13.52,12.94c-2.07,2.6-5.26,3.13-8.75,1.45
	C594.75,216.76,593.25,212.69,594.83,204.7z"/>
<path class="st1" d="M603.85,135.84c0.94,8.46,5.55,12.27,12.18,12.36c-2.93,2.83-6.29,2.96-9.72,0.38
	C602.08,145.41,601.09,141.26,603.85,135.84z"/>
<path class="st1" d="M683.39,328.1c-1.01-7.56,4.5-13.05,6.77-19.57c0.4,0.12,0.79,0.24,1.19,0.37c-2,6.51-3.99,13.01-5.99,19.52
	C684.71,328.31,684.05,328.2,683.39,328.1z"/>
<path class="st1" d="M705.99,385.47c-3.34,0.85-5.55-0.08-7.83-0.42c-2.45-0.36-2.5-2.18-1.97-3.73c0.81-2.35,2.09-0.44,3.04,0.08
	C701.25,382.5,703.18,383.76,705.99,385.47z"/>
<path class="st1" d="M724.96,180.93c-0.31,2.08-1.01,3.92-3,4.99l0.06,0.06c0.06-2.22,0.47-4.24,2.98-5L724.96,180.93z"/>
<path class="st1" d="M721.95,185.92c-0.03,1.43-0.65,2.46-1.99,3.02c0,0,0.04,0.04,0.04,0.04c-0.1-1.51,0.06-2.85,2.01-3
	C722.01,185.97,721.95,185.92,721.95,185.92z"/>
<path class="st1" d="M318.29,272.91c0-0.93,0-1.86,0-2.85C319.36,270.87,318.94,271.84,318.29,272.91z"/>
<path class="st1" d="M485,686.81c-0.07,0.78-0.18,1.52-1.19,1.58c-0.1,0.01-0.31-0.2-0.3-0.31c0.03-0.99,0.72-1.18,1.52-1.23
	C485.03,686.84,485,686.81,485,686.81z"/>
<path class="st1" d="M619.46,215.34c-0.07-0.27-0.13-0.41-0.12-0.54c0-0.05,0.2-0.07,0.3-0.11
	C619.59,214.87,619.54,215.05,619.46,215.34z"/>
<polygon class="st1" points="335.37,340.05 335.55,339.65 335.68,340.08 "/>
<path class="st1" d="M357.04,382.89c0.25,0.35,0.5,0.7,0.74,1.05c-0.12,0.09-0.25,0.18-0.37,0.26c-0.13-0.43-0.26-0.87-0.39-1.3
	C357.02,382.91,357.04,382.89,357.04,382.89z"/>
<path class="st1" d="M768.81,195.8c0.2-0.43,0.05-1.43,0.76-1.07c0.58,0.3,0,0.96-0.48,1.31C769.1,196.04,768.81,195.8,768.81,195.8
	z"/>
<path class="st1" d="M155.88,462.03c-0.72-0.54-1.02-1.25-0.83-2.14l0.03-0.03c0.85,0.26,1.13,0.97,1.36,1.72
	C156.24,461.73,156.06,461.88,155.88,462.03z"/>
<path class="st1" d="M682.01,463.9c0.12-0.44,0.23-0.88,0.35-1.32c0.13,0.08,0.26,0.16,0.4,0.24c-0.26,0.35-0.52,0.7-0.77,1.05
	C681.97,463.87,682.01,463.9,682.01,463.9z"/>
<path class="st1" d="M800.9,311.83c0.2-0.14,0.4-0.28,0.6-0.42c-0.14,0.2-0.29,0.39-0.43,0.59C801.07,312,800.9,311.83,800.9,311.83
	z"/>
<path class="st1" d="M155.04,459.9c-0.16-0.14-0.31-0.28-0.47-0.42c0.1,0.01,0.24-0.02,0.3,0.04c0.09,0.09,0.13,0.24,0.2,0.36
	C155.07,459.87,155.04,459.9,155.04,459.9z"/>
<path class="st1" d="M600.96,548.81c0.17-0.15,0.34-0.3,0.51-0.46c-0.14,0.18-0.29,0.36-0.43,0.54
	C601.04,548.89,600.96,548.81,600.96,548.81z"/>
<path class="st1" d="M708.01,403.92c0.34-0.34,0.67-0.67,1.01-1.01c0,0-0.05-0.05-0.05-0.05c-0.34,0.34-0.67,0.67-1.01,1.01
	C707.95,403.87,708.01,403.92,708.01,403.92z"/>
<path class="st1" d="M729.82,605.67c0.19-0.17,0.51-0.52,0.56-0.49c0.58,0.41,0.09,0.61-0.2,0.85
	C730.06,605.91,729.94,605.79,729.82,605.67z"/>
<path class="st1" d="M357.02,382.91c-0.37-0.29-0.74-0.58-1.11-0.87c0,0,0.31-0.31,0.31-0.31c0.28,0.39,0.55,0.78,0.82,1.17
	C357.04,382.89,357.02,382.91,357.02,382.91z"/>
<path class="st1" d="M757.96,466.85c-0.14,0.13-0.28,0.27-0.42,0.4c0.04-0.08,0.05-0.21,0.11-0.24c0.11-0.06,0.24-0.07,0.37-0.1
	C758.01,466.9,757.96,466.85,757.96,466.85z"/>
<path class="st1" d="M696.97,295.9c-0.04,0.12-0.06,0.27-0.14,0.37c-0.04,0.06-0.17,0.05-0.26,0.08c0.15-0.13,0.3-0.27,0.45-0.4
	C697.01,295.94,696.97,295.9,696.97,295.9z"/>
<path class="st1" d="M725,180.97c0.08-0.14,0.16-0.27,0.24-0.41c-0.09,0.12-0.19,0.24-0.28,0.37
	C724.96,180.93,725,180.97,725,180.97z"/>
<polygon class="st0" points="904.46,484.56 904.36,484.31 904.61,484.34 "/>
<path class="st0" d="M712.01,416.88c-0.27-0.37-0.54-0.73-0.8-1.1c1.25-0.27,0.53,0.74,0.74,1.15
	C711.95,416.93,712.01,416.88,712.01,416.88z"/>
</svg>
